<svg width="613" height="259" viewBox="0 0 613 259" fill="none" xmlns="http://www.w3.org/2000/svg">
<g clip-path="url(#clip0_12_20)">
<path d="M129.075 85.608C128.323 86.078 127.712 87.018 127.242 88.428C126.772 89.65 126.349 91.389 125.973 93.645C125.691 95.807 125.55 98.721 125.55 102.387V126.498C125.55 129.224 125.644 131.386 125.832 132.984C126.114 134.488 126.443 135.663 126.819 136.509C127.195 137.543 127.665 138.201 128.229 138.483C127.665 138.765 127.195 139.423 126.819 140.457C126.443 141.303 126.114 142.525 125.832 144.123C125.644 145.627 125.55 147.742 125.55 150.468V168.234C125.55 171.9 125.691 174.861 125.973 177.117C126.349 179.279 126.772 180.971 127.242 182.193C127.712 183.603 128.323 184.543 129.075 185.013L128.793 185.859H107.502L107.22 185.013C107.878 184.543 108.442 183.603 108.912 182.193C109.382 180.971 109.805 179.279 110.181 177.117C110.557 174.861 110.745 171.9 110.745 168.234V127.485L96.786 168.234C95.47 171.9 94.624 174.861 94.248 177.117C93.872 179.279 93.731 180.971 93.825 182.193C93.919 183.603 94.201 184.543 94.671 185.013L93.966 185.859H86.634L85.929 185.013C86.399 184.543 86.681 183.603 86.775 182.193C86.869 180.971 86.728 179.279 86.352 177.117C85.976 174.861 85.13 171.9 83.814 168.234L69.855 127.485V168.234C69.855 171.9 69.996 174.861 70.278 177.117C70.654 179.279 71.077 180.971 71.547 182.193C72.017 183.603 72.628 184.543 73.38 185.013L73.098 185.859H51.807L51.525 185.013C52.183 184.543 52.747 183.603 53.217 182.193C53.687 180.971 54.11 179.279 54.486 177.117C54.862 174.861 55.05 171.9 55.05 168.234V150.468C55.05 147.742 54.909 145.627 54.627 144.123C54.345 142.525 54.016 141.303 53.64 140.457C53.264 139.423 52.841 138.765 52.371 138.483C52.841 138.201 53.264 137.543 53.64 136.509C54.016 135.663 54.345 134.488 54.627 132.984C54.909 131.386 55.05 129.224 55.05 126.498V102.387C55.05 98.721 54.862 95.807 54.486 93.645C54.11 91.389 53.687 89.65 53.217 88.428C52.747 87.018 52.183 86.078 51.525 85.608L51.807 84.621H73.098L73.803 85.608C73.333 86.078 73.051 87.018 72.957 88.428C72.863 89.65 73.004 91.389 73.38 93.645C73.756 95.807 74.602 98.721 75.918 102.387L90.3 144.264L104.682 102.387C105.998 98.721 106.844 95.807 107.22 93.645C107.596 91.389 107.737 89.65 107.643 88.428C107.549 87.018 107.267 86.078 106.797 85.608L107.502 84.621H128.793L129.075 85.608Z" fill="#FFB200"/>
<path d="M129.075 85.608L135.435 95.784L143.095 90.9966L140.613 82.3113L129.075 85.608ZM127.242 88.428L138.442 92.7357L138.54 92.4813L138.626 92.2227L127.242 88.428ZM125.973 93.645L114.136 91.6722L114.101 91.882L114.074 92.0929L125.973 93.645ZM125.832 132.984L113.914 134.386L113.962 134.793L114.038 135.195L125.832 132.984ZM126.819 136.509L138.097 132.408L137.954 132.016L137.785 131.635L126.819 136.509ZM128.229 138.483L133.596 149.216L155.062 138.483L133.596 127.75L128.229 138.483ZM126.819 140.457L137.785 145.331L137.954 144.95L138.097 144.558L126.819 140.457ZM125.832 144.123L114.015 142.038L113.962 142.335L113.925 142.635L125.832 144.123ZM125.973 177.117L114.066 178.605L114.101 178.89L114.15 179.173L125.973 177.117ZM127.242 182.193L138.626 178.398L138.54 178.14L138.442 177.885L127.242 182.193ZM129.075 185.013L140.459 188.808L143.447 179.845L135.435 174.837L129.075 185.013ZM128.793 185.859V197.859H137.442L140.177 189.654L128.793 185.859ZM107.502 185.859L96.1178 189.654L98.8529 197.859H107.502V185.859ZM107.22 185.013L100.245 175.248L93.0331 180.4L95.8358 188.808L107.22 185.013ZM108.912 182.193L97.7119 177.885L97.614 178.14L97.5278 178.398L108.912 182.193ZM110.181 177.117L122.004 179.173L122.011 179.131L122.018 179.09L110.181 177.117ZM110.745 127.485H122.745L99.3926 123.596L110.745 127.485ZM96.786 168.234L108.08 172.288L108.11 172.206L108.138 172.123L96.786 168.234ZM94.248 177.117L106.071 179.173L106.078 179.131L106.085 179.09L94.248 177.117ZM93.825 182.193L105.798 181.395L105.794 181.334L105.79 181.273L93.825 182.193ZM94.671 185.013L103.89 192.695L110.905 184.277L103.156 176.528L94.671 185.013ZM93.966 185.859V197.859H99.5865L103.185 193.541L93.966 185.859ZM86.634 185.859L77.4153 193.541L81.0135 197.859H86.634V185.859ZM85.929 185.013L77.4437 176.528L69.6948 184.277L76.7103 192.695L85.929 185.013ZM86.775 182.193L74.8103 181.273L74.8057 181.334L74.8016 181.395L86.775 182.193ZM86.352 177.117L74.5153 179.09L74.5222 179.131L74.5295 179.173L86.352 177.117ZM83.814 168.234L72.4616 172.123L72.49 172.206L72.5197 172.288L83.814 168.234ZM69.855 127.485L81.2074 123.596L57.855 127.485H69.855ZM70.278 177.117L58.3707 178.605L58.4063 178.89L58.4555 179.173L70.278 177.117ZM71.547 182.193L82.9312 178.398L82.845 178.14L82.7471 177.885L71.547 182.193ZM73.38 185.013L84.7642 188.808L87.752 179.844L79.74 174.837L73.38 185.013ZM73.098 185.859V197.859H81.7471L84.4822 189.654L73.098 185.859ZM51.807 185.859L40.4228 189.654L43.1579 197.859H51.807V185.859ZM51.525 185.013L44.5501 175.248L37.3381 180.4L40.1408 188.808L51.525 185.013ZM53.217 182.193L42.0169 177.885L41.919 178.14L41.8328 178.398L53.217 182.193ZM54.486 177.117L66.3085 179.173L66.3158 179.131L66.3227 179.09L54.486 177.117ZM54.627 144.123L42.8096 146.208L42.8207 146.271L42.8325 146.334L54.627 144.123ZM53.64 140.457L42.3625 144.558L42.5049 144.95L42.6743 145.331L53.64 140.457ZM52.371 138.483L46.1971 128.193L29.0471 138.483L46.1971 148.773L52.371 138.483ZM53.64 136.509L42.6743 131.635L42.5049 132.016L42.3625 132.408L53.64 136.509ZM54.627 132.984L66.4215 135.195L66.4333 135.132L66.4444 135.069L54.627 132.984ZM54.486 93.645L42.6493 95.6178L42.6562 95.6595L42.6635 95.7011L54.486 93.645ZM53.217 88.428L41.8328 92.2227L41.919 92.4813L42.0169 92.7357L53.217 88.428ZM51.525 85.608L39.9867 82.3114L37.6609 90.4519L44.5501 95.3728L51.525 85.608ZM51.807 84.621V72.621H42.7554L40.2687 81.3244L51.807 84.621ZM73.098 84.621L82.8628 77.6461L79.2734 72.621H73.098V84.621ZM73.803 85.608L82.2883 94.0933L89.4764 86.9052L83.5678 78.6331L73.803 85.608ZM72.957 88.428L84.9217 89.3483L84.9263 89.2873L84.9304 89.2262L72.957 88.428ZM73.38 93.645L61.5433 95.6178L61.5502 95.6595L61.5575 95.7011L73.38 93.645ZM75.918 102.387L87.2673 98.4892L87.2404 98.4107L87.2123 98.3326L75.918 102.387ZM90.3 144.264L78.9507 148.162L90.3 181.208L101.649 148.162L90.3 144.264ZM104.682 102.387L93.3877 98.3326L93.3596 98.4107L93.3327 98.4892L104.682 102.387ZM107.22 93.645L119.043 95.7011L119.05 95.6595L119.057 95.6178L107.22 93.645ZM107.643 88.428L95.6696 89.2262L95.6737 89.2873L95.6783 89.3484L107.643 88.428ZM106.797 85.608L97.0322 78.6332L91.1236 86.9052L98.3117 94.0933L106.797 85.608ZM107.502 84.621V72.621H101.327L97.7372 77.6462L107.502 84.621ZM128.793 84.621L140.331 81.3243L137.845 72.621H128.793V84.621ZM122.715 75.432C118.457 78.093 116.662 82.2202 115.858 84.6333L138.626 92.2227C138.625 92.2257 138.595 92.3162 138.523 92.4735C138.451 92.6294 138.322 92.8858 138.114 93.2054C137.71 93.8272 136.881 94.8801 135.435 95.784L122.715 75.432ZM116.042 84.1203C115.144 86.4544 114.563 89.1148 114.136 91.6722L137.81 95.6178C137.962 94.7045 138.106 94.0034 138.232 93.485C138.363 92.9478 138.445 92.7288 138.442 92.7357L116.042 84.1203ZM114.074 92.0929C113.695 94.9986 113.55 98.5002 113.55 102.387H137.55C137.55 98.9418 137.687 96.6154 137.872 95.1971L114.074 92.0929ZM113.55 102.387V126.498H137.55V102.387H113.55ZM113.55 126.498C113.55 129.419 113.647 132.113 113.914 134.386L137.75 131.582C137.641 130.659 137.55 129.029 137.55 126.498H113.55ZM114.038 135.195C114.395 137.104 114.933 139.313 115.853 141.383L137.785 131.635C137.893 131.88 137.9 131.95 137.846 131.758C137.796 131.58 137.718 131.262 137.626 130.773L114.038 135.195ZM115.541 140.61C116.248 142.554 118.12 146.845 122.862 149.216L133.596 127.75C135.489 128.697 136.628 129.977 137.218 130.803C137.796 131.612 138.037 132.244 138.097 132.408L115.541 140.61ZM122.862 127.75C118.12 130.121 116.248 134.412 115.541 136.356L138.097 144.558C138.037 144.722 137.796 145.354 137.218 146.163C136.628 146.989 135.489 148.269 133.596 149.216L122.862 127.75ZM115.853 135.583C114.892 137.746 114.36 140.083 114.015 142.038L137.649 146.208C137.745 145.666 137.826 145.318 137.878 145.128C137.902 145.037 137.912 145.009 137.904 145.034C137.896 145.057 137.86 145.162 137.785 145.331L115.853 135.583ZM113.925 142.635C113.645 144.875 113.55 147.57 113.55 150.468H137.55C137.55 147.914 137.643 146.379 137.739 145.611L113.925 142.635ZM113.55 150.468V168.234H137.55V150.468H113.55ZM113.55 168.234C113.55 172.136 113.696 175.651 114.066 178.605L137.88 175.629C137.686 174.071 137.55 171.664 137.55 168.234H113.55ZM114.15 179.173C114.584 181.663 115.167 184.226 116.042 186.501L138.442 177.885C138.377 177.716 138.114 176.895 137.796 175.061L114.15 179.173ZM115.858 185.988C116.662 188.401 118.457 192.528 122.715 195.189L135.435 174.837C136.881 175.741 137.71 176.794 138.114 177.416C138.322 177.735 138.451 177.992 138.523 178.148C138.595 178.305 138.625 178.395 138.626 178.398L115.858 185.988ZM117.691 181.218L117.409 182.064L140.177 189.654L140.459 188.808L117.691 181.218ZM128.793 173.859H107.502V197.859H128.793V173.859ZM118.886 182.064L118.604 181.218L95.8358 188.808L96.1178 189.654L118.886 182.064ZM114.195 194.778C118.032 192.037 119.608 188.053 120.296 185.988L97.5278 178.398C97.4789 178.545 97.5512 178.274 97.8466 177.782C98.1278 177.313 98.8486 176.246 100.245 175.248L114.195 194.778ZM120.112 186.501C120.987 184.226 121.57 181.663 122.004 179.173L98.3585 175.061C98.0396 176.895 97.7771 177.716 97.7119 177.885L120.112 186.501ZM122.018 179.09C122.547 175.913 122.745 172.218 122.745 168.234H98.745C98.745 171.582 98.5669 173.809 98.3443 175.144L122.018 179.09ZM122.745 168.234V127.485H98.745V168.234H122.745ZM99.3926 123.596L85.4336 164.345L108.138 172.123L122.097 131.374L99.3926 123.596ZM85.4917 164.18C84.0764 168.122 82.9592 171.857 82.4113 175.144L106.085 179.09C106.289 177.865 106.864 175.678 108.08 172.288L85.4917 164.18ZM82.4255 175.061C81.9903 177.563 81.6523 180.408 81.8604 183.113L105.79 181.273C105.806 181.49 105.783 181.436 105.819 181.004C105.853 180.598 105.927 179.999 106.071 179.173L82.4255 175.061ZM81.8516 182.991C81.9347 184.238 82.1276 185.786 82.6131 187.404C83.0729 188.936 84.0355 191.348 86.1857 193.498L103.156 176.528C104.836 178.208 105.423 179.915 105.601 180.507C105.804 181.185 105.809 181.558 105.798 181.395L81.8516 182.991ZM85.4524 177.331L84.7474 178.177L103.185 193.541L103.89 192.695L85.4524 177.331ZM93.966 173.859H86.634V197.859H93.966V173.859ZM95.8527 178.177L95.1477 177.331L76.7103 192.695L77.4153 193.541L95.8527 178.177ZM94.4143 193.498C96.5645 191.348 97.5271 188.936 97.9869 187.404C98.4724 185.785 98.6653 184.238 98.7484 182.991L74.8016 181.395C74.7907 181.558 74.7956 181.186 74.9991 180.507C75.1769 179.915 75.7635 178.208 77.4437 176.528L94.4143 193.498ZM98.7397 183.113C98.9477 180.408 98.6097 177.563 98.1745 175.061L74.5295 179.173C74.673 179.999 74.7474 180.598 74.7812 181.004C74.8172 181.436 74.7936 181.49 74.8103 181.273L98.7397 183.113ZM98.1887 175.144C97.6408 171.857 96.5236 168.122 95.1083 164.18L72.5197 172.288C73.7364 175.678 74.3112 177.865 74.5153 179.09L98.1887 175.144ZM95.1664 164.345L81.2074 123.596L58.5026 131.374L72.4616 172.123L95.1664 164.345ZM57.855 127.485V168.234H81.855V127.485H57.855ZM57.855 168.234C57.855 172.136 58.0013 175.651 58.3707 178.605L82.1853 175.629C81.9907 174.071 81.855 171.664 81.855 168.234H57.855ZM58.4555 179.173C58.8886 181.663 59.4721 184.226 60.3469 186.501L82.7471 177.885C82.6819 177.716 82.4194 176.895 82.1005 175.061L58.4555 179.173ZM60.1628 185.988C60.9671 188.401 62.7624 192.528 67.02 195.189L79.74 174.837C81.1862 175.741 82.0149 176.794 82.4191 177.416C82.6268 177.735 82.7561 177.992 82.8278 178.148C82.9002 178.305 82.9302 178.395 82.9312 178.398L60.1628 185.988ZM61.9958 181.218L61.7138 182.064L84.4822 189.654L84.7642 188.808L61.9958 181.218ZM73.098 173.859H51.807V197.859H73.098V173.859ZM63.1912 182.064L62.9092 181.218L40.1408 188.808L40.4228 189.654L63.1912 182.064ZM58.4999 194.778C62.3374 192.037 63.9127 188.053 64.6012 185.988L41.8328 178.398C41.7839 178.545 41.8562 178.274 42.1516 177.782C42.4328 177.313 43.1536 176.246 44.5501 175.248L58.4999 194.778ZM64.4171 186.501C65.2919 184.226 65.8754 181.663 66.3085 179.173L42.6635 175.061C42.3446 176.895 42.0821 177.716 42.0169 177.885L64.4171 186.501ZM66.3227 179.09C66.8521 175.913 67.05 172.218 67.05 168.234H43.05C43.05 171.582 42.8719 173.809 42.6493 175.144L66.3227 179.09ZM67.05 168.234V150.468H43.05V168.234H67.05ZM67.05 150.468C67.05 147.478 66.9066 144.499 66.4215 141.912L42.8325 146.334C42.9114 146.755 43.05 148.006 43.05 150.468H67.05ZM66.4444 142.038C66.0994 140.083 65.5669 137.746 64.6057 135.583L42.6743 145.331C42.5995 145.162 42.5628 145.057 42.5551 145.034C42.5466 145.009 42.5569 145.037 42.5814 145.128C42.6327 145.318 42.7139 145.666 42.8096 146.208L66.4444 142.038ZM64.9175 136.356C64.3992 134.931 62.8063 130.75 58.5449 128.193L46.1971 148.773C44.3227 147.648 43.3353 146.282 42.9466 145.677C42.5258 145.022 42.3664 144.569 42.3625 144.558L64.9175 136.356ZM58.5449 148.773C62.8063 146.216 64.3992 142.035 64.9175 140.61L42.3625 132.408C42.3664 132.397 42.5258 131.944 42.9466 131.289C43.3353 130.684 44.3227 129.318 46.1971 128.193L58.5449 148.773ZM64.6057 141.383C65.5256 139.313 66.0635 137.104 66.4215 135.195L42.8325 130.773C42.7408 131.262 42.663 131.58 42.6132 131.758C42.5592 131.95 42.5657 131.88 42.6743 131.635L64.6057 141.383ZM66.4444 135.069C66.902 132.476 67.05 129.521 67.05 126.498H43.05C43.05 128.927 42.916 130.296 42.8096 130.899L66.4444 135.069ZM67.05 126.498V102.387H43.05V126.498H67.05ZM67.05 102.387C67.05 98.4234 66.8548 94.7297 66.3085 91.5889L42.6635 95.7011C42.8692 96.8843 43.05 99.0185 43.05 102.387H67.05ZM66.3227 91.6722C65.8965 89.1148 65.3149 86.4544 64.4171 84.1202L42.0169 92.7357C42.0142 92.7288 42.0961 92.9478 42.2267 93.485C42.3529 94.0034 42.4971 94.7045 42.6493 95.6178L66.3227 91.6722ZM64.6012 84.6333C63.9127 82.5677 62.3374 78.5843 58.4999 75.8432L44.5501 95.3728C43.1536 94.3753 42.4328 93.3081 42.1516 92.8395C41.8562 92.3471 41.7839 92.0761 41.8328 92.2227L64.6012 84.6333ZM63.0633 88.9046L63.3453 87.9176L40.2687 81.3244L39.9867 82.3114L63.0633 88.9046ZM51.807 96.621H73.098V72.621H51.807V96.621ZM63.3332 91.5958L64.0382 92.5828L83.5678 78.6331L82.8628 77.6461L63.3332 91.5958ZM65.3177 77.1227C63.1675 79.2729 62.2049 81.6846 61.7451 83.2173C61.2596 84.8355 61.0667 86.3828 60.9836 87.6298L84.9304 89.2262C84.9413 89.0632 84.9364 89.4355 84.7329 90.1137C84.5551 90.7064 83.9685 92.4131 82.2883 94.0933L65.3177 77.1227ZM60.9923 87.5077C60.7855 90.1965 61.12 93.0778 61.5433 95.6178L85.2167 91.6722C85.0682 90.7811 84.9894 90.1281 84.953 89.679C84.914 89.1983 84.9386 89.1286 84.9217 89.3483L60.9923 87.5077ZM61.5575 95.7011C62.1089 98.8717 63.2237 102.541 64.6237 106.441L87.2123 98.3326C85.9803 94.9006 85.4031 92.7423 85.2025 91.5889L61.5575 95.7011ZM64.5687 106.285L78.9507 148.162L101.649 140.366L87.2673 98.4892L64.5687 106.285ZM101.649 148.162L116.031 106.285L93.3327 98.4892L78.9507 140.366L101.649 148.162ZM115.976 106.441C117.376 102.541 118.491 98.8717 119.043 95.7011L95.3975 91.5889C95.1969 92.7423 94.6197 94.9006 93.3877 98.3326L115.976 106.441ZM119.057 95.6178C119.48 93.0778 119.814 90.1964 119.608 87.5076L95.6783 89.3484C95.6614 89.1286 95.686 89.1983 95.647 89.679C95.6106 90.1281 95.5318 90.7811 95.3833 91.6722L119.057 95.6178ZM119.616 87.6298C119.533 86.3828 119.34 84.8355 118.855 83.2173C118.395 81.6846 117.432 79.2729 115.282 77.1227L98.3117 94.0933C96.6315 92.4131 96.0449 90.7064 95.8671 90.1137C95.6636 89.4355 95.6587 89.0632 95.6696 89.2262L119.616 87.6298ZM116.562 92.5828L117.267 91.5958L97.7372 77.6462L97.0322 78.6332L116.562 92.5828ZM107.502 96.621H128.793V72.621H107.502V96.621ZM117.255 87.9177L117.537 88.9047L140.613 82.3113L140.331 81.3243L117.255 87.9177Z" fill="black"/>
<mask id="path-3-outside-1_12_20" maskUnits="userSpaceOnUse" x="112" y="96" width="191" height="102" fill="black">
<rect fill="white" x="112" y="96" width="191" height="102"/>
<path d="M150.484 117.87V136.623H167.263L165.43 149.736L164.584 150.018C164.208 149.36 163.456 148.796 162.328 148.326C161.294 147.856 159.837 147.48 157.957 147.198C156.171 146.916 153.68 146.728 150.484 146.634V173.988H153.022C156.594 173.988 222.367 173.847 224.341 173.565C226.409 173.189 227.96 172.766 228.994 172.296C230.216 171.826 231.062 171.262 231.532 170.604L232.519 170.886L234.352 183.999H133.423L133 183.012C133.658 182.542 134.222 181.649 134.692 180.333C135.162 179.205 135.538 177.607 135.82 175.539C136.196 173.471 136.384 170.651 136.384 167.079V157.35C136.384 154.812 136.243 152.791 135.961 151.287C135.679 149.783 135.397 148.655 135.115 147.903C134.739 146.963 134.316 146.305 133.846 145.929C134.316 145.647 134.739 145.036 135.115 144.096C135.397 143.344 135.679 142.216 135.961 140.712C136.243 139.114 136.384 137.046 136.384 134.508V124.779C136.384 121.301 136.196 118.528 135.82 116.46C135.538 114.298 135.162 112.653 134.692 111.525C134.222 110.209 133.658 109.316 133 108.846L133.423 108H171.352L169.519 120.972L168.532 121.395C168.062 120.737 167.216 120.173 165.994 119.703C164.96 119.233 163.409 118.81 161.341 118.434C159.367 118.058 156.594 117.87 153.022 117.87H150.484Z"/>
<path d="M228.528 108.846C227.87 109.316 227.306 110.209 226.836 111.525C226.366 112.653 225.943 114.298 225.567 116.46C225.285 118.528 225.144 121.301 225.144 124.779V134.508C225.144 137.046 225.238 139.114 225.426 140.712C225.708 142.216 226.037 143.344 226.413 144.096C226.789 145.036 227.212 145.647 227.682 145.929C227.212 146.305 226.789 146.963 226.413 147.903C226.037 148.655 225.708 149.783 225.426 151.287C225.238 152.791 225.144 154.812 225.144 157.35V158.079C225.144 161.651 225.285 157.471 225.567 159.539C225.943 161.607 226.366 163.205 226.836 164.333C227.306 165.649 227.87 166.542 228.528 167.012L228.245 167.999H207.942L207.66 167.012C208.13 166.636 208.6 165.931 209.07 164.897C209.446 163.957 209.822 162.688 210.198 161.09C210.574 159.398 208.855 167.142 209.044 164.322L194.547 135.354V151.079C194.547 154.651 194.688 157.471 194.97 159.539C195.346 161.607 195.769 163.205 196.239 164.333C196.709 165.649 197.273 166.542 197.931 167.012L197.648 167.999H176.345L176.062 167.012C176.721 166.542 177.285 165.649 177.755 164.333C178.225 163.205 178.6 161.607 178.882 159.539C179.258 157.471 179.446 154.651 179.446 151.079V151.35C179.446 148.812 180.306 146.791 180.024 145.287C179.742 143.783 179.46 142.655 179.178 141.903C178.802 140.963 178.379 140.305 177.909 139.929C178.379 139.647 178.802 139.036 179.178 138.096C179.46 137.344 179.742 136.216 180.024 134.712C180.306 133.114 180.446 134.046 180.446 131.508V121.779C180.446 118.301 180.258 118.528 179.882 116.46C179.6 114.298 179.225 112.653 178.755 111.525C178.285 110.209 177.721 109.316 177.062 108.846L177.345 108H197.648L198.354 108.846C197.978 109.41 197.883 110.397 198.072 111.807C198.26 113.029 198.683 114.815 199.34 117.165C200.092 119.421 201.409 122.429 203.288 126.189L211.044 142.686V124.779C211.044 121.301 210.855 118.528 210.479 116.46C210.197 114.298 209.822 112.653 209.352 111.525C208.882 110.209 208.317 109.316 207.66 108.846L207.942 108H228.245L228.528 108.846Z"/>
<path d="M283.664 108.846C282.912 109.316 282.301 110.209 281.831 111.525C281.361 112.653 280.938 114.298 280.562 116.46C280.28 118.528 280.139 121.301 280.139 124.779V136.764C280.233 138.832 280.421 140.477 280.703 141.699C280.985 142.827 281.267 143.72 281.549 144.378C281.925 145.13 282.301 145.647 282.677 145.929C282.301 146.211 281.925 146.728 281.549 147.48C281.267 148.138 280.985 149.078 280.703 150.3C280.421 151.522 280.233 153.12 280.139 155.094V168.348C280.139 170.792 279.669 173.048 278.729 175.116C277.883 177.184 276.661 179.017 275.063 180.615C273.559 182.119 271.726 183.341 269.564 184.281C267.496 185.127 265.287 185.55 262.937 185.55H256.31C253.866 185.55 251.61 185.127 249.542 184.281C247.474 183.341 245.641 182.119 244.043 180.615C242.445 179.017 241.176 177.184 240.236 175.116C239.39 173.048 238.967 170.792 238.967 168.348V155.094C238.873 153.12 238.685 151.522 238.403 150.3C238.121 149.078 237.839 148.138 237.557 147.48C237.181 146.728 236.805 146.211 236.429 145.929C236.805 145.647 237.181 145.13 237.557 144.378C237.839 143.72 238.121 142.827 238.403 141.699C238.685 140.477 238.873 138.832 238.967 136.764V124.779C238.967 121.301 238.779 118.528 238.403 116.46C238.121 114.298 237.745 112.653 237.275 111.525C236.805 110.209 236.241 109.316 235.583 108.846L235.865 108H256.169L256.451 108.846C255.793 109.316 255.229 110.209 254.759 111.525C254.289 112.653 253.866 114.298 253.49 116.46C253.208 118.528 253.067 121.301 253.067 124.779V134.508C253.067 137.046 253.161 139.114 253.349 140.712C253.631 142.216 253.96 143.344 254.336 144.096C254.712 145.036 255.135 145.647 255.605 145.929C255.135 146.305 254.712 146.963 254.336 147.903C253.96 148.655 253.631 149.783 253.349 151.287C253.161 152.791 253.067 154.812 253.067 157.35V170.181C253.067 171.685 253.584 173.001 254.618 174.129C255.652 175.163 256.968 175.68 258.566 175.68H260.681C262.185 175.68 263.454 175.163 264.488 174.129C265.616 173.001 266.18 171.685 266.18 170.181V157.35C266.18 154.812 266.039 152.791 265.757 151.287C265.475 149.783 265.146 148.655 264.77 147.903C264.394 146.963 263.971 146.305 263.501 145.929C263.971 145.647 264.394 145.036 264.77 144.096C265.146 143.344 265.475 142.216 265.757 140.712C266.039 139.114 266.18 137.046 266.18 134.508V124.779C266.18 121.301 265.992 118.528 265.616 116.46C265.24 114.298 264.817 112.653 264.347 111.525C263.877 110.209 263.313 109.316 262.655 108.846L263.078 108H283.241L283.664 108.846Z"/>
</mask>
<path d="M150.484 117.87V136.623H167.263L165.43 149.736L164.584 150.018C164.208 149.36 163.456 148.796 162.328 148.326C161.294 147.856 159.837 147.48 157.957 147.198C156.171 146.916 153.68 146.728 150.484 146.634V173.988H153.022C156.594 173.988 222.367 173.847 224.341 173.565C226.409 173.189 227.96 172.766 228.994 172.296C230.216 171.826 231.062 171.262 231.532 170.604L232.519 170.886L234.352 183.999H133.423L133 183.012C133.658 182.542 134.222 181.649 134.692 180.333C135.162 179.205 135.538 177.607 135.82 175.539C136.196 173.471 136.384 170.651 136.384 167.079V157.35C136.384 154.812 136.243 152.791 135.961 151.287C135.679 149.783 135.397 148.655 135.115 147.903C134.739 146.963 134.316 146.305 133.846 145.929C134.316 145.647 134.739 145.036 135.115 144.096C135.397 143.344 135.679 142.216 135.961 140.712C136.243 139.114 136.384 137.046 136.384 134.508V124.779C136.384 121.301 136.196 118.528 135.82 116.46C135.538 114.298 135.162 112.653 134.692 111.525C134.222 110.209 133.658 109.316 133 108.846L133.423 108H171.352L169.519 120.972L168.532 121.395C168.062 120.737 167.216 120.173 165.994 119.703C164.96 119.233 163.409 118.81 161.341 118.434C159.367 118.058 156.594 117.87 153.022 117.87H150.484Z" fill="#FFB200"/>
<path d="M228.528 108.846C227.87 109.316 227.306 110.209 226.836 111.525C226.366 112.653 225.943 114.298 225.567 116.46C225.285 118.528 225.144 121.301 225.144 124.779V134.508C225.144 137.046 225.238 139.114 225.426 140.712C225.708 142.216 226.037 143.344 226.413 144.096C226.789 145.036 227.212 145.647 227.682 145.929C227.212 146.305 226.789 146.963 226.413 147.903C226.037 148.655 225.708 149.783 225.426 151.287C225.238 152.791 225.144 154.812 225.144 157.35V158.079C225.144 161.651 225.285 157.471 225.567 159.539C225.943 161.607 226.366 163.205 226.836 164.333C227.306 165.649 227.87 166.542 228.528 167.012L228.245 167.999H207.942L207.66 167.012C208.13 166.636 208.6 165.931 209.07 164.897C209.446 163.957 209.822 162.688 210.198 161.09C210.574 159.398 208.855 167.142 209.044 164.322L194.547 135.354V151.079C194.547 154.651 194.688 157.471 194.97 159.539C195.346 161.607 195.769 163.205 196.239 164.333C196.709 165.649 197.273 166.542 197.931 167.012L197.648 167.999H176.345L176.062 167.012C176.721 166.542 177.285 165.649 177.755 164.333C178.225 163.205 178.6 161.607 178.882 159.539C179.258 157.471 179.446 154.651 179.446 151.079V151.35C179.446 148.812 180.306 146.791 180.024 145.287C179.742 143.783 179.46 142.655 179.178 141.903C178.802 140.963 178.379 140.305 177.909 139.929C178.379 139.647 178.802 139.036 179.178 138.096C179.46 137.344 179.742 136.216 180.024 134.712C180.306 133.114 180.446 134.046 180.446 131.508V121.779C180.446 118.301 180.258 118.528 179.882 116.46C179.6 114.298 179.225 112.653 178.755 111.525C178.285 110.209 177.721 109.316 177.062 108.846L177.345 108H197.648L198.354 108.846C197.978 109.41 197.883 110.397 198.072 111.807C198.26 113.029 198.683 114.815 199.34 117.165C200.092 119.421 201.409 122.429 203.288 126.189L211.044 142.686V124.779C211.044 121.301 210.855 118.528 210.479 116.46C210.197 114.298 209.822 112.653 209.352 111.525C208.882 110.209 208.317 109.316 207.66 108.846L207.942 108H228.245L228.528 108.846Z" fill="#FFB200"/>
<path d="M283.664 108.846C282.912 109.316 282.301 110.209 281.831 111.525C281.361 112.653 280.938 114.298 280.562 116.46C280.28 118.528 280.139 121.301 280.139 124.779V136.764C280.233 138.832 280.421 140.477 280.703 141.699C280.985 142.827 281.267 143.72 281.549 144.378C281.925 145.13 282.301 145.647 282.677 145.929C282.301 146.211 281.925 146.728 281.549 147.48C281.267 148.138 280.985 149.078 280.703 150.3C280.421 151.522 280.233 153.12 280.139 155.094V168.348C280.139 170.792 279.669 173.048 278.729 175.116C277.883 177.184 276.661 179.017 275.063 180.615C273.559 182.119 271.726 183.341 269.564 184.281C267.496 185.127 265.287 185.55 262.937 185.55H256.31C253.866 185.55 251.61 185.127 249.542 184.281C247.474 183.341 245.641 182.119 244.043 180.615C242.445 179.017 241.176 177.184 240.236 175.116C239.39 173.048 238.967 170.792 238.967 168.348V155.094C238.873 153.12 238.685 151.522 238.403 150.3C238.121 149.078 237.839 148.138 237.557 147.48C237.181 146.728 236.805 146.211 236.429 145.929C236.805 145.647 237.181 145.13 237.557 144.378C237.839 143.72 238.121 142.827 238.403 141.699C238.685 140.477 238.873 138.832 238.967 136.764V124.779C238.967 121.301 238.779 118.528 238.403 116.46C238.121 114.298 237.745 112.653 237.275 111.525C236.805 110.209 236.241 109.316 235.583 108.846L235.865 108H256.169L256.451 108.846C255.793 109.316 255.229 110.209 254.759 111.525C254.289 112.653 253.866 114.298 253.49 116.46C253.208 118.528 253.067 121.301 253.067 124.779V134.508C253.067 137.046 253.161 139.114 253.349 140.712C253.631 142.216 253.96 143.344 254.336 144.096C254.712 145.036 255.135 145.647 255.605 145.929C255.135 146.305 254.712 146.963 254.336 147.903C253.96 148.655 253.631 149.783 253.349 151.287C253.161 152.791 253.067 154.812 253.067 157.35V170.181C253.067 171.685 253.584 173.001 254.618 174.129C255.652 175.163 256.968 175.68 258.566 175.68H260.681C262.185 175.68 263.454 175.163 264.488 174.129C265.616 173.001 266.18 171.685 266.18 170.181V157.35C266.18 154.812 266.039 152.791 265.757 151.287C265.475 149.783 265.146 148.655 264.77 147.903C264.394 146.963 263.971 146.305 263.501 145.929C263.971 145.647 264.394 145.036 264.77 144.096C265.146 143.344 265.475 142.216 265.757 140.712C266.039 139.114 266.18 137.046 266.18 134.508V124.779C266.18 121.301 265.992 118.528 265.616 116.46C265.24 114.298 264.817 112.653 264.347 111.525C263.877 110.209 263.313 109.316 262.655 108.846L263.078 108H283.241L283.664 108.846Z" fill="#FFB200"/>
<path d="M150.484 117.87V136.623H167.263L165.43 149.736L164.584 150.018C164.208 149.36 163.456 148.796 162.328 148.326C161.294 147.856 159.837 147.48 157.957 147.198C156.171 146.916 153.68 146.728 150.484 146.634V173.988H153.022C156.594 173.988 222.367 173.847 224.341 173.565C226.409 173.189 227.96 172.766 228.994 172.296C230.216 171.826 231.062 171.262 231.532 170.604L232.519 170.886L234.352 183.999H133.423L133 183.012C133.658 182.542 134.222 181.649 134.692 180.333C135.162 179.205 135.538 177.607 135.82 175.539C136.196 173.471 136.384 170.651 136.384 167.079V157.35C136.384 154.812 136.243 152.791 135.961 151.287C135.679 149.783 135.397 148.655 135.115 147.903C134.739 146.963 134.316 146.305 133.846 145.929C134.316 145.647 134.739 145.036 135.115 144.096C135.397 143.344 135.679 142.216 135.961 140.712C136.243 139.114 136.384 137.046 136.384 134.508V124.779C136.384 121.301 136.196 118.528 135.82 116.46C135.538 114.298 135.162 112.653 134.692 111.525C134.222 110.209 133.658 109.316 133 108.846L133.423 108H171.352L169.519 120.972L168.532 121.395C168.062 120.737 167.216 120.173 165.994 119.703C164.96 119.233 163.409 118.81 161.341 118.434C159.367 118.058 156.594 117.87 153.022 117.87H150.484Z" stroke="black" stroke-width="24" mask="url(#path-3-outside-1_12_20)"/>
<path d="M228.528 108.846C227.87 109.316 227.306 110.209 226.836 111.525C226.366 112.653 225.943 114.298 225.567 116.46C225.285 118.528 225.144 121.301 225.144 124.779V134.508C225.144 137.046 225.238 139.114 225.426 140.712C225.708 142.216 226.037 143.344 226.413 144.096C226.789 145.036 227.212 145.647 227.682 145.929C227.212 146.305 226.789 146.963 226.413 147.903C226.037 148.655 225.708 149.783 225.426 151.287C225.238 152.791 225.144 154.812 225.144 157.35V158.079C225.144 161.651 225.285 157.471 225.567 159.539C225.943 161.607 226.366 163.205 226.836 164.333C227.306 165.649 227.87 166.542 228.528 167.012L228.245 167.999H207.942L207.66 167.012C208.13 166.636 208.6 165.931 209.07 164.897C209.446 163.957 209.822 162.688 210.198 161.09C210.574 159.398 208.855 167.142 209.044 164.322L194.547 135.354V151.079C194.547 154.651 194.688 157.471 194.97 159.539C195.346 161.607 195.769 163.205 196.239 164.333C196.709 165.649 197.273 166.542 197.931 167.012L197.648 167.999H176.345L176.062 167.012C176.721 166.542 177.285 165.649 177.755 164.333C178.225 163.205 178.6 161.607 178.882 159.539C179.258 157.471 179.446 154.651 179.446 151.079V151.35C179.446 148.812 180.306 146.791 180.024 145.287C179.742 143.783 179.46 142.655 179.178 141.903C178.802 140.963 178.379 140.305 177.909 139.929C178.379 139.647 178.802 139.036 179.178 138.096C179.46 137.344 179.742 136.216 180.024 134.712C180.306 133.114 180.446 134.046 180.446 131.508V121.779C180.446 118.301 180.258 118.528 179.882 116.46C179.6 114.298 179.225 112.653 178.755 111.525C178.285 110.209 177.721 109.316 177.062 108.846L177.345 108H197.648L198.354 108.846C197.978 109.41 197.883 110.397 198.072 111.807C198.26 113.029 198.683 114.815 199.34 117.165C200.092 119.421 201.409 122.429 203.288 126.189L211.044 142.686V124.779C211.044 121.301 210.855 118.528 210.479 116.46C210.197 114.298 209.822 112.653 209.352 111.525C208.882 110.209 208.317 109.316 207.66 108.846L207.942 108H228.245L228.528 108.846Z" stroke="black" stroke-width="24" mask="url(#path-3-outside-1_12_20)"/>
<path d="M283.664 108.846C282.912 109.316 282.301 110.209 281.831 111.525C281.361 112.653 280.938 114.298 280.562 116.46C280.28 118.528 280.139 121.301 280.139 124.779V136.764C280.233 138.832 280.421 140.477 280.703 141.699C280.985 142.827 281.267 143.72 281.549 144.378C281.925 145.13 282.301 145.647 282.677 145.929C282.301 146.211 281.925 146.728 281.549 147.48C281.267 148.138 280.985 149.078 280.703 150.3C280.421 151.522 280.233 153.12 280.139 155.094V168.348C280.139 170.792 279.669 173.048 278.729 175.116C277.883 177.184 276.661 179.017 275.063 180.615C273.559 182.119 271.726 183.341 269.564 184.281C267.496 185.127 265.287 185.55 262.937 185.55H256.31C253.866 185.55 251.61 185.127 249.542 184.281C247.474 183.341 245.641 182.119 244.043 180.615C242.445 179.017 241.176 177.184 240.236 175.116C239.39 173.048 238.967 170.792 238.967 168.348V155.094C238.873 153.12 238.685 151.522 238.403 150.3C238.121 149.078 237.839 148.138 237.557 147.48C237.181 146.728 236.805 146.211 236.429 145.929C236.805 145.647 237.181 145.13 237.557 144.378C237.839 143.72 238.121 142.827 238.403 141.699C238.685 140.477 238.873 138.832 238.967 136.764V124.779C238.967 121.301 238.779 118.528 238.403 116.46C238.121 114.298 237.745 112.653 237.275 111.525C236.805 110.209 236.241 109.316 235.583 108.846L235.865 108H256.169L256.451 108.846C255.793 109.316 255.229 110.209 254.759 111.525C254.289 112.653 253.866 114.298 253.49 116.46C253.208 118.528 253.067 121.301 253.067 124.779V134.508C253.067 137.046 253.161 139.114 253.349 140.712C253.631 142.216 253.96 143.344 254.336 144.096C254.712 145.036 255.135 145.647 255.605 145.929C255.135 146.305 254.712 146.963 254.336 147.903C253.96 148.655 253.631 149.783 253.349 151.287C253.161 152.791 253.067 154.812 253.067 157.35V170.181C253.067 171.685 253.584 173.001 254.618 174.129C255.652 175.163 256.968 175.68 258.566 175.68H260.681C262.185 175.68 263.454 175.163 264.488 174.129C265.616 173.001 266.18 171.685 266.18 170.181V157.35C266.18 154.812 266.039 152.791 265.757 151.287C265.475 149.783 265.146 148.655 264.77 147.903C264.394 146.963 263.971 146.305 263.501 145.929C263.971 145.647 264.394 145.036 264.77 144.096C265.146 143.344 265.475 142.216 265.757 140.712C266.039 139.114 266.18 137.046 266.18 134.508V124.779C266.18 121.301 265.992 118.528 265.616 116.46C265.24 114.298 264.817 112.653 264.347 111.525C263.877 110.209 263.313 109.316 262.655 108.846L263.078 108H283.241L283.664 108.846Z" stroke="black" stroke-width="24" mask="url(#path-3-outside-1_12_20)"/>
<path d="M356.752 147.296C356.85 145.538 356.98 144.376 357.103 143.688C357.303 143.031 357.47 142.682 357.548 142.543L366.164 136.945L357.482 132.715C357.395 132.534 357.264 132.221 357.114 131.733C356.979 130.924 356.849 129.691 356.752 127.951V100.768C356.752 97.388 355.945 94.1643 354.357 91.1809C352.824 88.2102 350.695 85.6812 348.04 83.6163C345.486 81.4505 342.508 79.8384 339.208 78.7172C335.915 77.5597 332.457 77 328.872 77H318.103C314.418 77 310.886 77.5556 307.558 78.7304C304.323 79.8726 301.376 81.4963 298.765 83.6172C296.194 85.7044 294.134 88.2394 292.617 91.1811C291.029 94.1645 290.222 97.3881 290.222 100.768V128.499C290.117 130.3 289.972 131.56 289.822 132.37C289.716 132.881 289.622 133.281 289.541 133.584L284.482 137.693L289.531 141.793C289.61 142.107 289.706 142.539 289.814 143.113C289.97 143.934 290.116 145.168 290.222 146.895V168.232C290.222 171.683 291.019 174.974 292.642 178.005C294.151 180.823 296.17 183.293 298.635 185.413L298.762 185.523L298.896 185.625C301.484 187.61 304.387 189.15 307.558 190.27C310.886 191.444 314.418 192 318.103 192H328.872C332.456 192 335.915 191.44 339.208 190.283C342.5 189.165 345.478 187.601 348.039 185.522C350.65 183.401 352.782 180.899 354.332 178.005C355.955 174.974 356.752 171.683 356.752 168.232V147.296ZM357.623 142.426C357.623 142.426 357.622 142.427 357.62 142.43C357.622 142.427 357.623 142.426 357.623 142.426ZM357.747 133.184C357.747 133.185 357.746 133.183 357.744 133.18C357.746 133.183 357.747 133.184 357.747 133.184ZM325.855 132.821L323.817 133.815L320.856 132.613C320.749 132.347 320.592 131.89 320.418 131.176C320.268 130.013 320.171 128.284 320.171 125.894V99.4789C320.363 99.3668 320.652 99.2722 321.179 99.2722H325.795C326.323 99.2722 326.612 99.3668 326.803 99.4789V125.894C326.803 128.362 326.642 129.996 326.435 130.97C326.18 132.065 325.955 132.619 325.855 132.821ZM321.204 133.337C321.204 133.337 321.203 133.335 321.201 133.329C321.203 133.334 321.204 133.337 321.204 133.337ZM320.864 142.77L323.817 141.571L325.854 142.563C325.864 142.586 325.877 142.615 325.893 142.653C325.932 142.746 325.982 142.876 326.04 143.051C326.157 143.406 326.29 143.888 326.427 144.519L326.436 144.557L326.444 144.595C326.635 145.42 326.803 146.973 326.803 149.492V169.66C326.612 169.772 326.323 169.867 325.795 169.867H321.179C320.652 169.867 320.363 169.772 320.171 169.66V149.492C320.171 147.055 320.272 145.379 320.418 144.332C320.54 143.791 320.658 143.37 320.764 143.051C320.8 142.94 320.834 142.847 320.864 142.77ZM321.204 142.049C321.204 142.049 321.203 142.051 321.201 142.056C321.203 142.051 321.204 142.049 321.204 142.049ZM316.222 94.938L319.491 98.9636L316.222 94.938Z" fill="#FFB200" stroke="black" stroke-width="12"/>
<path d="M431.675 146.005C431.54 145.766 431.294 145.249 431.004 144.314C430.78 143.54 430.577 142.166 430.577 139.987V127.879C430.577 126.488 430.652 125.61 430.727 125.121L449.881 119.71L430.718 114.297C430.641 113.721 430.577 112.829 430.577 111.542V95.1086C430.577 92.8863 430.789 91.5746 430.992 90.9157L431.003 90.882L431.013 90.8481C431.306 89.853 431.553 89.3196 431.678 89.0902L438.747 86.5941L433.78 80.0465L433.27 79.3738L431.469 77H428.49H402.804H399.115L397.45 80.2922L397.11 80.9649L396.828 81.5214L393.598 78.9668L392.748 78.2941L391.112 77H389.026H363.34H359.651L357.986 80.2922L357.646 80.9649L354.698 86.7928L360.076 88.9628L360.082 88.9713C360.154 89.0773 360.449 89.599 360.817 90.8481L360.827 90.882L360.838 90.9157C361.041 91.5746 361.253 92.8863 361.253 95.1086V111.542C361.253 113.054 361.11 113.84 361.026 114.136C360.988 114.249 360.952 114.346 360.92 114.426L345.331 119.71L360.894 124.986C360.93 125.084 360.971 125.202 361.015 125.343L361.031 125.394L361.048 125.444L361.048 125.445C361.048 125.446 361.049 125.45 361.051 125.455C361.053 125.462 361.056 125.473 361.06 125.488C361.068 125.517 361.078 125.56 361.09 125.617C361.114 125.732 361.141 125.894 361.166 126.107C361.217 126.541 361.253 127.123 361.253 127.879V139.987C361.253 142.166 361.049 143.54 360.826 144.314C360.471 145.458 360.182 145.978 360.082 146.125L360.076 146.133L354.29 148.468L357.832 154.472L358.173 155.049L359.914 158H363.34H389.026H392.452L394.193 155.049L394.534 154.472L395.915 152.131L397.296 154.472L397.637 155.049L399.378 158H402.804H428.49H431.192L432.983 155.976L433.493 155.4L439.395 148.731L431.675 146.005ZM395.954 88.739C395.73 88.1666 395.566 87.6938 395.448 87.3115L399.766 89.0541C399.883 89.2607 400.141 89.7967 400.451 90.8481L400.461 90.882L400.472 90.9157C400.675 91.5746 400.887 92.8863 400.887 95.1086V95.9281L399.049 93.5576C399.048 93.556 399.047 93.5543 399.046 93.5527C397.262 91.241 396.34 89.6696 395.954 88.739ZM392.041 146.005C391.916 145.785 391.697 145.326 391.436 144.522C391.251 143.569 391.113 142.099 391.113 139.987V123.243L400.887 136.227V139.987C400.887 142.166 400.683 143.54 400.46 144.314C400.155 145.299 399.897 145.821 399.768 146.041L396.21 147.477L392.041 146.005Z" fill="#FFB200" stroke="black" stroke-width="12"/>
<path d="M368.436 162.192L366.225 158.606L361.573 160.403L360.838 160.687L357 162.169L357 166.284L357 186.716L357 190.831L360.838 192.313L361.573 192.597L366.225 194.394L368.436 190.808L368.515 190.775L368.67 190.7C368.851 190.613 369.588 190.345 371.244 190.095L371.415 190.069L371.584 190.033C372.797 189.778 374.737 189.595 377.571 189.595L386.02 189.595C387.991 189.595 389.334 189.724 390.174 189.892C390.608 189.987 390.967 190.075 391.256 190.154L395.203 197.776L400.395 190.254C400.442 190.24 400.492 190.225 400.547 190.209C400.873 190.114 401.307 190.005 401.866 189.883C402.572 189.73 403.844 189.595 405.857 189.595L414.306 189.595C417.235 189.595 419.21 189.779 420.416 190.033L420.566 190.065L420.717 190.089C422.266 190.333 422.993 190.597 423.208 190.7L423.363 190.775L423.442 190.808L425.525 194.187L430.029 192.696L430.886 192.412L435 191.05L435 186.716L435 166.284L435 161.95L430.886 160.588L430.029 160.304L425.525 158.813L423.442 162.192L423.363 162.225L423.208 162.3C422.873 162.461 422.069 162.752 420.571 163.075C419.223 163.275 417.175 163.405 414.306 163.405L405.857 163.405C403.928 163.405 402.558 163.326 401.655 163.211C401.271 163.122 400.992 163.042 400.799 162.976C400.695 162.941 400.633 162.916 400.606 162.905L400.438 162.808L395.203 155.224L391.186 162.982C390.997 163.045 390.729 163.122 390.366 163.206C389.361 163.328 387.936 163.405 386.02 163.405L377.571 163.405C374.773 163.405 372.755 163.275 371.403 163.072C369.791 162.74 368.972 162.445 368.67 162.3L368.515 162.225L368.436 162.192ZM391.861 162.666C391.861 162.666 391.859 162.668 391.853 162.67C391.859 162.668 391.861 162.666 391.861 162.666Z" fill="#FFB200" stroke="black" stroke-width="12"/>
<path d="M466.06 197.098C457.558 209.426 440.646 212.547 428.284 204.068C415.923 195.589 412.794 178.721 421.296 166.392C429.797 154.064 446.71 150.943 459.071 159.422C471.432 167.901 474.561 184.769 466.06 197.098Z" fill="black"/>
<path d="M422.427 165.113C421.34 166.451 420.294 167.846 419.294 169.296C406.612 187.687 404.934 209.804 413.372 225.693C431.268 227.868 451.376 218.392 464.058 200.001C465.058 198.551 465.989 197.078 466.852 195.587L422.427 165.113Z" fill="black"/>
<path d="M472.866 139.417C478.585 151.124 476.744 167.791 466.971 181.962C457.199 196.134 442.253 203.811 429.247 202.673C423.527 190.967 425.369 174.3 435.141 160.128C444.913 145.957 459.859 138.279 472.866 139.417Z" fill="black"/>
<path d="M486.994 222.985C487.029 224.499 488.565 225.548 489.946 224.917C501.598 219.592 512.002 211.155 519.792 199.857C542.773 166.531 534.315 120.935 500.901 98.015C467.487 75.0949 421.77 83.5304 398.79 116.856C390.999 128.154 386.821 140.862 386.004 153.619C385.908 155.13 387.439 156.186 388.87 155.677C410.314 148.055 434.998 150.456 455.188 164.306C475.379 178.156 486.458 200.285 486.994 222.985Z" fill="black"/>
<path d="M486.994 222.985C487.029 224.499 488.565 225.548 489.946 224.917C501.598 219.592 512.002 211.155 519.792 199.857C542.773 166.531 534.315 120.935 500.901 98.015C467.487 75.0949 421.77 83.5304 398.79 116.856C390.999 128.154 386.821 140.862 386.004 153.619C385.908 155.13 387.439 156.186 388.87 155.677C410.314 148.055 434.998 150.456 455.188 164.306C475.379 178.156 486.458 200.285 486.994 222.985Z" fill="black"/>
<path d="M522.067 172.653C503.337 199.815 466.076 206.69 438.843 188.009C411.61 169.329 404.716 132.166 423.446 105.005C442.176 77.8434 498.156 27.2925 533.128 51.2812C568.1 75.2699 540.797 145.492 522.067 172.653Z" fill="black"/>
<path d="M511.217 158.505C494.208 183.172 462.569 190.925 440.55 175.822C418.532 160.718 414.472 128.478 431.482 103.811C448.491 79.1439 497.901 32.2552 526.176 51.6504C554.451 71.0455 528.227 133.838 511.217 158.505Z" fill="black"/>
<path d="M499.074 150.716C490.174 163.623 472.469 166.889 459.528 158.013C446.587 149.136 443.312 131.478 452.212 118.571C461.112 105.665 478.817 102.398 491.758 111.274C504.699 120.151 507.974 137.809 499.074 150.716Z" fill="black"/>
<path d="M493.305 142.648C485.201 154.399 469.082 157.373 457.3 149.291C445.518 141.21 442.536 125.132 450.639 113.382C458.742 101.631 474.862 98.6567 486.644 106.738C498.425 114.82 501.408 130.897 493.305 142.648Z" fill="black"/>
<path d="M493.26 145.7C494.456 143.967 496.834 143.528 498.572 144.72C500.311 145.913 500.751 148.285 499.555 150.018L477.908 181.41C476.713 183.144 474.334 183.582 472.596 182.39C470.858 181.198 470.418 178.826 471.613 177.092L493.26 145.7Z" fill="black"/>
<path d="M466.803 184.068C467.998 182.334 470.377 181.895 472.115 183.088C473.853 184.28 474.293 186.652 473.098 188.386C471.902 190.119 469.524 190.558 467.786 189.366C466.047 188.173 465.607 185.801 466.803 184.068Z" fill="black"/>
<path d="M467.682 155.899C468.878 154.165 471.256 153.727 472.994 154.919C474.733 156.111 475.173 158.483 473.977 160.217L457.622 183.935C456.426 185.669 454.048 186.108 452.309 184.915C450.571 183.723 450.131 181.351 451.327 179.617L467.682 155.899Z" fill="black"/>
<path d="M474.262 156.816L486.152 164.972L478.937 175.436L474.74 172.558L474.981 172.209C476.176 170.475 475.736 168.103 473.998 166.911C472.259 165.718 469.881 166.157 468.686 167.891L468.445 168.24L462.15 163.922L462.277 163.738C463.27 162.298 462.904 160.329 461.461 159.339L458.479 157.293L460.884 153.805L471.376 161.002L474.262 156.816Z" fill="black"/>
<circle cx="442.5" cy="192.5" r="22.5" fill="black"/>
<circle cx="474.466" cy="179.08" r="22.1955" transform="rotate(34.5186 474.466 179.08)" fill="#FF7701" stroke="black" stroke-width="7"/>
<mask id="path-10-inside-2_12_20" fill="white">
<path fill-rule="evenodd" clip-rule="evenodd" d="M454.365 163.306C453.336 164.575 452.347 165.897 451.401 167.273C439.405 184.715 437.818 205.692 445.8 220.762C462.728 222.824 481.748 213.837 493.744 196.394C494.69 195.019 495.571 193.622 496.388 192.208L454.365 163.306Z"/>
</mask>
<path fill-rule="evenodd" clip-rule="evenodd" d="M454.365 163.306C453.336 164.575 452.347 165.897 451.401 167.273C439.405 184.715 437.818 205.692 445.8 220.762C462.728 222.824 481.748 213.837 493.744 196.394C494.69 195.019 495.571 193.622 496.388 192.208L454.365 163.306Z" fill="#FF7701"/>
<path d="M454.365 163.306L458.332 157.538L453.002 153.873L448.928 158.898L454.365 163.306ZM445.8 220.762L439.614 224.038L441.325 227.268L444.953 227.71L445.8 220.762ZM496.388 192.208L502.45 195.708L505.685 190.106L500.355 186.44L496.388 192.208ZM448.928 158.898C447.783 160.309 446.684 161.779 445.634 163.306L457.169 171.239C458.01 170.016 458.89 168.84 459.803 167.714L448.928 158.898ZM445.634 163.306C432.406 182.539 430.221 206.304 439.614 224.038L451.985 217.485C445.414 205.079 446.404 186.891 457.169 171.239L445.634 163.306ZM444.953 227.71C464.873 230.137 486.284 219.594 499.512 200.361L487.977 192.428C477.212 208.08 460.582 215.511 446.646 213.813L444.953 227.71ZM499.512 200.361C500.562 198.834 501.541 197.282 502.45 195.708L490.326 188.707C489.601 189.962 488.818 191.204 487.977 192.428L499.512 200.361ZM500.355 186.44L458.332 157.538L450.398 169.074L492.421 197.975L500.355 186.44Z" fill="black" mask="url(#path-10-inside-2_12_20)"/>
<path fill-rule="evenodd" clip-rule="evenodd" d="M502.076 138.935C507.486 150.038 505.744 165.845 496.501 179.286C487.257 192.727 473.119 200.008 460.816 198.929C455.406 187.826 457.148 172.019 466.391 158.578C475.635 145.138 489.773 137.856 502.076 138.935Z" fill="#FFB200"/>
<path fill-rule="evenodd" clip-rule="evenodd" d="M515.44 218.192C515.474 219.629 516.927 220.624 518.233 220.025C529.254 214.975 539.095 206.973 546.465 196.258C568.203 164.651 560.202 121.406 528.595 99.6684C496.988 77.9304 453.744 85.9308 432.006 117.538C424.637 128.253 420.685 140.305 419.912 152.404C419.821 153.838 421.269 154.839 422.623 154.356C442.907 147.128 466.256 149.405 485.355 162.54C504.454 175.676 514.933 196.664 515.44 218.192Z" fill="#F56974"/>
<mask id="path-14-inside-3_12_20" fill="white">
<path fill-rule="evenodd" clip-rule="evenodd" d="M515.44 218.192C515.474 219.629 516.927 220.624 518.233 220.025C529.254 214.975 539.095 206.973 546.465 196.258C568.203 164.651 560.202 121.406 528.595 99.6684C496.988 77.9304 453.744 85.9308 432.006 117.538C424.637 128.253 420.685 140.305 419.912 152.404C419.821 153.838 421.269 154.839 422.623 154.356C442.907 147.128 466.256 149.405 485.355 162.54C504.454 175.676 514.933 196.664 515.44 218.192Z"/>
</mask>
<path d="M419.912 152.404L425.9 152.787L419.912 152.404ZM422.623 154.356L424.637 160.008L422.623 154.356ZM518.233 220.025L520.732 225.48L518.233 220.025ZM515.44 218.192L509.442 218.334L515.44 218.192ZM541.521 192.858C534.783 202.655 525.797 209.959 515.733 214.57L520.732 225.48C532.712 219.991 543.408 211.291 551.408 199.658L541.521 192.858ZM525.195 104.612C554.072 124.472 561.381 163.981 541.521 192.858L551.408 199.658C575.024 165.321 566.333 118.34 531.995 94.7247L525.195 104.612ZM436.95 120.938C456.81 92.0612 496.319 84.7519 525.195 104.612L531.995 94.7247C497.658 71.109 450.678 79.8005 427.062 114.138L436.95 120.938ZM425.9 152.787C426.606 141.739 430.211 130.735 436.95 120.938L427.062 114.138C419.062 125.77 414.764 138.871 413.924 152.022L425.9 152.787ZM424.637 160.008C443.186 153.398 464.509 155.485 481.955 167.484L488.755 157.596C468.002 143.324 442.629 140.857 420.609 148.705L424.637 160.008ZM481.955 167.484C499.4 179.482 508.978 198.647 509.442 218.334L521.438 218.051C520.888 194.681 509.507 171.869 488.755 157.596L481.955 167.484ZM413.924 152.022C413.532 158.171 419.62 161.796 424.637 160.008L420.609 148.705C422.918 147.881 426.11 149.505 425.9 152.787L413.924 152.022ZM515.733 214.57C518.723 213.201 521.381 215.6 521.438 218.051L509.442 218.334C509.567 223.658 515.131 228.046 520.732 225.48L515.733 214.57Z" fill="black" mask="url(#path-14-inside-3_12_20)"/>
<path d="M548.617 170.457C530.9 196.217 495.654 202.738 469.893 185.021C444.133 167.304 437.612 132.058 455.329 106.298C473.046 80.5371 525.999 32.5935 559.079 55.3449C592.16 78.0964 566.334 144.696 548.617 170.457Z" fill="#CFCFCF"/>
<path d="M538.354 157.039C522.264 180.433 492.336 187.786 471.508 173.462C450.681 159.138 446.84 128.56 462.93 105.165C479.02 81.7705 525.757 37.3003 552.503 55.6951C579.25 74.0899 554.444 133.644 538.354 157.039Z" fill="white"/>
<path d="M545.733 168.473C529.111 192.641 496.045 198.759 471.877 182.137C447.709 165.515 441.591 132.449 458.213 108.281C466.82 95.7665 484.15 77.6821 503.311 65.5892C522.735 53.3304 542.452 48.1571 557.096 58.2287C571.74 68.3004 573.963 88.5628 569.465 111.087C565.027 133.306 554.34 155.959 545.733 168.473Z" stroke="black" stroke-width="7"/>
<circle cx="504.703" cy="134.408" r="26.8999" transform="rotate(34.5186 504.703 134.408)" fill="#FF7701"/>
<circle cx="501.23" cy="128.121" r="24.491" transform="rotate(34.5186 501.23 128.121)" fill="#FFB200"/>
<circle cx="504.703" cy="134.408" r="30.3999" transform="rotate(34.5186 504.703 134.408)" stroke="black" stroke-width="7"/>
<rect x="523.415" y="141.917" width="7.22685" height="43.3611" rx="3.61343" transform="rotate(34.5186 523.415 141.917)" fill="#FF7701"/>
<rect x="498.389" y="178.306" width="7.22685" height="7.22685" rx="3.61343" transform="rotate(34.5186 498.389 178.306)" fill="#FF7701"/>
<rect x="499.22" y="151.59" width="7.22685" height="34.5283" rx="3.61343" transform="rotate(34.5186 499.22 151.59)" fill="#FF7701"/>
<path fill-rule="evenodd" clip-rule="evenodd" d="M503.397 155.437L514.644 163.172L507.819 173.097L503.849 170.366L504.076 170.036C505.207 168.391 504.791 166.141 503.147 165.011C501.503 163.88 499.253 164.296 498.122 165.94L497.894 166.271L496.571 165.361L496.571 165.361L491.94 162.176L492.06 162.001C492.999 160.636 492.653 158.768 491.288 157.83L488.467 155.889L490.742 152.581L500.667 159.407L503.397 155.437Z" fill="#FF7701"/>
<path d="M129.075 85.608C128.323 86.078 127.712 87.018 127.242 88.428C126.772 89.65 126.349 91.389 125.973 93.645C125.691 95.807 125.55 98.721 125.55 102.387V126.498C125.55 129.224 125.644 131.386 125.832 132.984C126.114 134.488 126.443 135.663 126.819 136.509C127.195 137.543 127.665 138.201 128.229 138.483C127.665 138.765 127.195 139.423 126.819 140.457C126.443 141.303 126.114 142.525 125.832 144.123C125.644 145.627 125.55 147.742 125.55 150.468V168.234C125.55 171.9 125.691 174.861 125.973 177.117C126.349 179.279 126.772 180.971 127.242 182.193C127.712 183.603 128.323 184.543 129.075 185.013L128.793 185.859H107.502L107.22 185.013C107.878 184.543 108.442 183.603 108.912 182.193C109.382 180.971 109.805 179.279 110.181 177.117C110.557 174.861 110.745 171.9 110.745 168.234V127.485L96.786 168.234C95.47 171.9 94.624 174.861 94.248 177.117C93.872 179.279 93.731 180.971 93.825 182.193C93.919 183.603 94.201 184.543 94.671 185.013L93.966 185.859H86.634L85.929 185.013C86.399 184.543 86.681 183.603 86.775 182.193C86.869 180.971 86.728 179.279 86.352 177.117C85.976 174.861 85.13 171.9 83.814 168.234L69.855 127.485V168.234C69.855 171.9 69.996 174.861 70.278 177.117C70.654 179.279 71.077 180.971 71.547 182.193C72.017 183.603 72.628 184.543 73.38 185.013L73.098 185.859H51.807L51.525 185.013C52.183 184.543 52.747 183.603 53.217 182.193C53.687 180.971 54.11 179.279 54.486 177.117C54.862 174.861 55.05 171.9 55.05 168.234V150.468C55.05 147.742 54.909 145.627 54.627 144.123C54.345 142.525 54.016 141.303 53.64 140.457C53.264 139.423 52.841 138.765 52.371 138.483C52.841 138.201 53.264 137.543 53.64 136.509C54.016 135.663 54.345 134.488 54.627 132.984C54.909 131.386 55.05 129.224 55.05 126.498V102.387C55.05 98.721 54.862 95.807 54.486 93.645C54.11 91.389 53.687 89.65 53.217 88.428C52.747 87.018 52.183 86.078 51.525 85.608L51.807 84.621H73.098L73.803 85.608C73.333 86.078 73.051 87.018 72.957 88.428C72.863 89.65 73.004 91.389 73.38 93.645C73.756 95.807 74.602 98.721 75.918 102.387L90.3 144.264L104.682 102.387C105.998 98.721 106.844 95.807 107.22 93.645C107.596 91.389 107.737 89.65 107.643 88.428C107.549 87.018 107.267 86.078 106.797 85.608L107.502 84.621H128.793L129.075 85.608Z" fill="white"/>
<path d="M150.484 117.87V136.623H167.263L165.43 149.736L164.584 150.018C164.208 149.36 163.456 148.796 162.328 148.326C161.294 147.856 159.837 147.48 157.957 147.198C156.171 146.916 153.68 146.728 150.484 146.634V173.988H153.022C156.594 173.988 222.367 173.847 224.341 173.565C226.409 173.189 227.96 172.766 228.994 172.296C230.216 171.826 231.062 171.262 231.532 170.604L232.519 170.886L234.352 183.999H133.423L133 183.012C133.658 182.542 134.222 181.649 134.692 180.333C135.162 179.205 135.538 177.607 135.82 175.539C136.196 173.471 136.384 170.651 136.384 167.079V157.35C136.384 154.812 136.243 152.791 135.961 151.287C135.679 149.783 135.397 148.655 135.115 147.903C134.739 146.963 134.316 146.305 133.846 145.929C134.316 145.647 134.739 145.036 135.115 144.096C135.397 143.344 135.679 142.216 135.961 140.712C136.243 139.114 136.384 137.046 136.384 134.508V124.779C136.384 121.301 136.196 118.528 135.82 116.46C135.538 114.298 135.162 112.653 134.692 111.525C134.222 110.209 133.658 109.316 133 108.846L133.423 108H171.352L169.519 120.972L168.532 121.395C168.062 120.737 167.216 120.173 165.994 119.703C164.96 119.233 163.409 118.81 161.341 118.434C159.367 118.058 156.594 117.87 153.022 117.87H150.484Z" fill="white"/>
<path d="M228.528 108.846C227.87 109.316 227.306 110.209 226.836 111.525C226.366 112.653 225.943 114.298 225.567 116.46C225.285 118.528 225.144 121.301 225.144 124.779V134.508C225.144 137.046 225.238 139.114 225.426 140.712C225.708 142.216 226.037 143.344 226.413 144.096C226.789 145.036 227.212 145.647 227.682 145.929C227.212 146.305 226.789 146.963 226.413 147.903C226.037 148.655 225.708 149.783 225.426 151.287C225.238 152.791 225.144 154.812 225.144 157.35V158.079C225.144 161.651 225.285 157.471 225.567 159.539C225.943 161.607 226.366 163.205 226.836 164.333C227.306 165.649 227.87 166.542 228.528 167.012L228.245 167.999H207.942L207.66 167.012C208.13 166.636 208.6 165.931 209.07 164.897C209.446 163.957 209.822 162.688 210.198 161.09C210.574 159.398 208.855 167.142 209.044 164.322L194.547 135.354V151.079C194.547 154.651 194.688 157.471 194.97 159.539C195.346 161.607 195.769 163.205 196.239 164.333C196.709 165.649 197.273 166.542 197.931 167.012L197.648 167.999H176.345L176.062 167.012C176.721 166.542 177.285 165.649 177.755 164.333C178.225 163.205 178.6 161.607 178.882 159.539C179.258 157.471 179.446 154.651 179.446 151.079V151.35C179.446 148.812 180.306 146.791 180.024 145.287C179.742 143.783 179.46 142.655 179.178 141.903C178.802 140.963 178.379 140.305 177.909 139.929C178.379 139.647 178.802 139.036 179.178 138.096C179.46 137.344 179.742 136.216 180.024 134.712C180.306 133.114 180.446 134.046 180.446 131.508V121.779C180.446 118.301 180.258 118.528 179.882 116.46C179.6 114.298 179.225 112.653 178.755 111.525C178.285 110.209 177.721 109.316 177.062 108.846L177.345 108H197.648L198.354 108.846C197.978 109.41 197.883 110.397 198.072 111.807C198.26 113.029 198.683 114.815 199.34 117.165C200.092 119.421 201.409 122.429 203.288 126.189L211.044 142.686V124.779C211.044 121.301 210.855 118.528 210.479 116.46C210.197 114.298 209.822 112.653 209.352 111.525C208.882 110.209 208.317 109.316 207.66 108.846L207.942 108H228.245L228.528 108.846Z" fill="white"/>
<path d="M283.664 108.846C282.912 109.316 282.301 110.209 281.831 111.525C281.361 112.653 280.938 114.298 280.562 116.46C280.28 118.528 280.139 121.301 280.139 124.779V136.764C280.233 138.832 280.421 140.477 280.703 141.699C280.985 142.827 281.267 143.72 281.549 144.378C281.925 145.13 282.301 145.647 282.677 145.929C282.301 146.211 281.925 146.728 281.549 147.48C281.267 148.138 280.985 149.078 280.703 150.3C280.421 151.522 280.233 153.12 280.139 155.094V168.348C280.139 170.792 279.669 173.048 278.729 175.116C277.883 177.184 276.661 179.017 275.063 180.615C273.559 182.119 271.726 183.341 269.564 184.281C267.496 185.127 265.287 185.55 262.937 185.55H256.31C253.866 185.55 251.61 185.127 249.542 184.281C247.474 183.341 245.641 182.119 244.043 180.615C242.445 179.017 241.176 177.184 240.236 175.116C239.39 173.048 238.967 170.792 238.967 168.348V155.094C238.873 153.12 238.685 151.522 238.403 150.3C238.121 149.078 237.839 148.138 237.557 147.48C237.181 146.728 236.805 146.211 236.429 145.929C236.805 145.647 237.181 145.13 237.557 144.378C237.839 143.72 238.121 142.827 238.403 141.699C238.685 140.477 238.873 138.832 238.967 136.764V124.779C238.967 121.301 238.779 118.528 238.403 116.46C238.121 114.298 237.745 112.653 237.275 111.525C236.805 110.209 236.241 109.316 235.583 108.846L235.865 108H256.169L256.451 108.846C255.793 109.316 255.229 110.209 254.759 111.525C254.289 112.653 253.866 114.298 253.49 116.46C253.208 118.528 253.067 121.301 253.067 124.779V134.508C253.067 137.046 253.161 139.114 253.349 140.712C253.631 142.216 253.96 143.344 254.336 144.096C254.712 145.036 255.135 145.647 255.605 145.929C255.135 146.305 254.712 146.963 254.336 147.903C253.96 148.655 253.631 149.783 253.349 151.287C253.161 152.791 253.067 154.812 253.067 157.35V170.181C253.067 171.685 253.584 173.001 254.618 174.129C255.652 175.163 256.968 175.68 258.566 175.68H260.681C262.185 175.68 263.454 175.163 264.488 174.129C265.616 173.001 266.18 171.685 266.18 170.181V157.35C266.18 154.812 266.039 152.791 265.757 151.287C265.475 149.783 265.146 148.655 264.77 147.903C264.394 146.963 263.971 146.305 263.501 145.929C263.971 145.647 264.394 145.036 264.77 144.096C265.146 143.344 265.475 142.216 265.757 140.712C266.039 139.114 266.18 137.046 266.18 134.508V124.779C266.18 121.301 265.992 118.528 265.616 116.46C265.24 114.298 264.817 112.653 264.347 111.525C263.877 110.209 263.313 109.316 262.655 108.846L263.078 108H283.241L283.664 108.846Z" fill="white"/>
<path d="M350.752 128.115C350.866 130.243 351.037 131.909 351.265 133.112C351.607 134.315 352.006 135.287 352.462 136.027C352.917 136.86 353.43 137.415 354 137.693C353.43 138.063 352.917 138.618 352.462 139.358C352.006 140.099 351.607 141.071 351.265 142.274C351.037 143.384 350.866 145.004 350.752 147.132V168.232C350.752 170.73 350.182 173.044 349.043 175.173C347.903 177.301 346.308 179.198 344.256 180.864C342.319 182.437 339.983 183.686 337.248 184.612C334.627 185.537 331.835 186 328.872 186H318.103C315.026 186 312.177 185.537 309.556 184.612C306.934 183.686 304.598 182.437 302.547 180.864C300.61 179.198 299.071 177.301 297.932 175.173C296.792 173.044 296.222 170.73 296.222 168.232V146.716C296.108 144.772 295.937 143.199 295.709 141.996C295.481 140.793 295.254 139.867 295.026 139.22C294.684 138.479 294.342 137.97 294 137.693C294.342 137.415 294.684 136.906 295.026 136.166C295.254 135.518 295.481 134.639 295.709 133.528C295.937 132.325 296.108 130.706 296.222 128.67V100.768C296.222 98.3621 296.792 96.0948 297.932 93.9663C299.071 91.7453 300.61 89.8482 302.547 88.2749C304.598 86.6092 306.934 85.3136 309.556 84.3881C312.177 83.4627 315.026 83 318.103 83H328.872C331.835 83 334.627 83.4627 337.248 84.3881C339.983 85.3136 342.319 86.6092 344.256 88.2749C346.308 89.8482 347.903 91.7453 349.043 93.9663C350.182 96.0948 350.752 98.3621 350.752 100.768V128.115ZM332.803 149.492C332.803 146.808 332.632 144.726 332.291 143.245C331.949 141.672 331.55 140.469 331.094 139.636C330.638 138.618 330.125 137.97 329.556 137.693C330.125 137.415 330.638 136.767 331.094 135.749C331.55 134.916 331.949 133.76 332.291 132.279C332.632 130.706 332.803 128.577 332.803 125.894V98.9636C332.803 97.3904 332.12 96.0485 330.752 94.938C329.385 93.8275 327.732 93.2722 325.795 93.2722H321.179C319.242 93.2722 317.59 93.8275 316.222 94.938C314.855 96.0485 314.171 97.3904 314.171 98.9636V125.894C314.171 128.577 314.285 130.706 314.513 132.279C314.855 133.76 315.254 134.916 315.709 135.749C316.165 136.767 316.735 137.415 317.419 137.693C316.735 137.97 316.165 138.618 315.709 139.636C315.254 140.469 314.855 141.672 314.513 143.245C314.285 144.726 314.171 146.808 314.171 149.492V170.175C314.171 171.748 314.855 173.09 316.222 174.201C317.59 175.311 319.242 175.867 321.179 175.867H325.795C327.732 175.867 329.385 175.311 330.752 174.201C332.12 173.09 332.803 171.748 332.803 170.175V149.492Z" fill="#FF7701"/>
<path d="M424.577 139.987C424.577 142.486 424.804 144.504 425.258 146.042C425.711 147.515 426.222 148.669 426.789 149.501C427.356 150.462 428.093 151.103 429 151.423L428.49 152H402.804L402.464 151.423C403.258 151.103 403.995 150.462 404.675 149.501C405.242 148.669 405.753 147.515 406.206 146.042C406.66 144.504 406.887 142.486 406.887 139.987V134.221L385.113 105.295V139.987C385.113 142.486 385.284 144.504 385.624 146.042C386.077 147.515 386.588 148.669 387.155 149.501C387.722 150.462 388.459 151.103 389.366 151.423L389.026 152H363.34L363 151.423C363.794 151.103 364.474 150.462 365.041 149.501C365.608 148.669 366.119 147.515 366.572 146.042C367.026 144.504 367.253 142.486 367.253 139.987V127.879C367.253 126.021 367.082 124.579 366.742 123.554C366.402 122.465 366.005 121.632 365.552 121.056C365.098 120.351 364.588 119.903 364.021 119.71C364.588 119.518 365.098 119.07 365.552 118.365C366.005 117.788 366.402 116.987 366.742 115.962C367.082 114.873 367.253 113.4 367.253 111.542V95.1086C367.253 92.61 367.026 90.624 366.572 89.1504C366.119 87.6128 365.608 86.4276 365.041 85.5947C364.474 84.6337 363.794 83.993 363 83.6727L363.34 83H389.026L389.876 83.6727C389.309 84.5056 389.082 85.5306 389.196 86.7479C389.309 87.837 389.706 89.2465 390.387 90.9763C391.067 92.6421 392.371 94.7242 394.299 97.2228L406.887 113.464V95.1086C406.887 92.61 406.66 90.624 406.206 89.1504C405.753 87.6128 405.242 86.4276 404.675 85.5947C403.995 84.6337 403.258 83.993 402.464 83.6727L402.804 83H428.49L429 83.6727C428.093 83.993 427.356 84.6337 426.789 85.5947C426.222 86.4276 425.711 87.6128 425.258 89.1504C424.804 90.624 424.577 92.61 424.577 95.1086V111.542C424.577 113.4 424.691 114.873 424.918 115.962C425.258 116.987 425.655 117.788 426.108 118.365C426.562 119.07 427.129 119.518 427.809 119.71C427.129 119.903 426.562 120.351 426.108 121.056C425.655 121.632 425.258 122.465 424.918 123.554C424.691 124.579 424.577 126.021 424.577 127.879V139.987Z" fill="#FF7701"/>
<path d="M363.735 166C364.143 166.662 364.918 167.23 366.061 167.703C367.041 168.176 368.469 168.601 370.347 168.98C372.143 169.264 374.551 169.405 377.571 169.405L386.02 169.405C388.224 169.405 390.02 169.311 391.408 169.122C392.714 168.838 393.694 168.507 394.347 168.128C395.163 167.75 395.694 167.324 395.939 166.851C396.265 167.324 396.837 167.75 397.653 168.128C398.306 168.507 399.286 168.838 400.592 169.122C401.898 169.311 403.653 169.405 405.857 169.405L414.306 169.405C417.408 169.405 419.857 169.264 421.653 168.98C423.449 168.601 424.837 168.176 425.816 167.703C426.959 167.23 427.735 166.662 428.143 166L429 166.284L429 186.716L428.143 187C427.735 186.338 426.959 185.77 425.816 185.297C424.837 184.824 423.449 184.446 421.653 184.162C419.857 183.784 417.408 183.595 414.306 183.595L405.857 183.595C403.653 183.595 401.898 183.736 400.592 184.02C399.286 184.304 398.306 184.588 397.653 184.872C396.837 185.25 396.265 185.676 395.939 186.149C395.694 185.676 395.163 185.25 394.347 184.872C393.694 184.588 392.714 184.304 391.408 184.02C390.02 183.736 388.224 183.595 386.02 183.595L377.571 183.595C374.551 183.595 372.143 183.784 370.347 184.162C368.469 184.446 367.041 184.824 366.061 185.297C364.918 185.77 364.143 186.338 363.735 187L363 186.716L363 166.284L363.735 166Z" fill="#FF7701"/>
<g clip-path="url(#clip1_12_20)">
<path d="M429.269 147.813C428.936 147.325 428.536 146.489 428.131 145.177C427.793 144.024 427.577 142.329 427.577 139.987V127.879C427.577 126.196 427.678 125.042 427.822 124.321C428.091 123.494 428.334 123.078 428.466 122.911L428.554 122.799L428.631 122.679C428.663 122.63 428.689 122.596 428.707 122.574L438.845 119.71L428.707 116.847C428.689 116.825 428.663 116.791 428.631 116.741L428.554 116.622L428.466 116.51C428.314 116.317 428.078 115.915 427.822 115.185C427.674 114.384 427.577 113.193 427.577 111.542V95.1086C427.577 92.7482 427.797 91.0993 428.125 90.0331L428.13 90.0162L428.135 89.9993C428.546 88.6059 428.949 87.7525 429.269 87.283L429.323 87.2028L429.372 87.1192C429.641 86.6635 429.861 86.5502 429.999 86.5015L433.874 85.1334L431.39 81.8596L430.88 81.1869L429.979 80H428.49H402.804H400.959L400.127 81.6461L399.787 82.3188L398.313 85.2328L401.341 86.4547C401.436 86.4928 401.75 86.6622 402.21 87.3044C402.527 87.7782 402.924 88.6268 403.329 89.9993L403.334 90.0162L403.339 90.0331C403.667 91.0993 403.887 92.7482 403.887 95.1086V104.696L396.674 95.3902C396.674 95.3895 396.673 95.3887 396.672 95.388C394.815 92.98 393.703 91.154 393.171 89.859C392.541 88.2553 392.256 87.1479 392.181 86.4536C392.122 85.7885 392.261 85.5002 392.356 85.361L393.928 83.0523L391.737 81.3197L390.887 80.647L390.069 80H389.026H363.34H361.496L360.663 81.6461L360.323 82.3188L358.849 85.2328L361.877 86.4547L361.877 86.4548C361.896 86.4624 362.124 86.5543 362.457 87.1192L362.507 87.2028L362.561 87.283C362.881 87.7525 363.284 88.6059 363.695 89.9993L363.7 90.0162L363.705 90.0331C364.033 91.0993 364.253 92.7482 364.253 95.1086V111.542C364.253 113.242 364.093 114.366 363.886 115.044C363.612 115.864 363.355 116.305 363.194 116.51L363.106 116.622L363.029 116.741C362.975 116.825 362.931 116.883 362.899 116.921C362.898 116.922 362.898 116.923 362.897 116.923L354.676 119.71L362.897 122.497C362.898 122.498 362.898 122.499 362.899 122.499C362.931 122.538 362.975 122.596 363.029 122.679L363.106 122.799L363.194 122.911C363.332 123.087 363.594 123.536 363.879 124.449L363.887 124.474L363.895 124.499C364.087 125.077 364.253 126.146 364.253 127.879V139.987C364.253 142.329 364.037 144.024 363.7 145.177C363.294 146.489 362.894 147.325 362.561 147.813L362.507 147.893L362.457 147.977C362.124 148.542 361.896 148.634 361.877 148.641L361.877 148.641L358.645 149.946L360.416 152.948L360.756 153.524L361.627 155H363.34H389.026H390.739L391.61 153.524L391.95 152.948L393.802 149.808L390.365 148.595C390.227 148.546 390.007 148.433 389.738 147.977L389.689 147.893L389.635 147.813C389.311 147.337 388.922 146.532 388.528 145.278C388.269 144.046 388.113 142.306 388.113 139.987V114.269L403.887 135.224V139.987C403.887 142.329 403.671 144.024 403.334 145.177C402.934 146.469 402.54 147.3 402.21 147.791C401.751 148.434 401.436 148.603 401.341 148.641L398.109 149.946L399.88 152.948L400.22 153.524L401.091 155H402.804H428.49H429.841L430.736 153.988L431.247 153.412L434.198 150.077L429.999 148.595C429.861 148.546 429.641 148.433 429.372 147.977L429.323 147.893L429.269 147.813Z" fill="#FF7701" stroke="black" stroke-width="6"/>
</g>
<path d="M125.075 79.608C124.323 80.078 123.712 81.018 123.242 82.428C122.772 83.65 122.349 85.389 121.973 87.645C121.691 89.807 121.55 92.721 121.55 96.387V120.498C121.55 123.224 121.644 125.386 121.832 126.984C122.114 128.488 122.443 129.663 122.819 130.509C123.195 131.543 123.665 132.201 124.229 132.483C123.665 132.765 123.195 133.423 122.819 134.457C122.443 135.303 122.114 136.525 121.832 138.123C121.644 139.627 121.55 141.742 121.55 144.468V162.234C121.55 165.9 121.691 168.861 121.973 171.117C122.349 173.279 122.772 174.971 123.242 176.193C123.712 177.603 124.323 178.543 125.075 179.013L124.793 179.859H103.502L103.22 179.013C103.878 178.543 104.442 177.603 104.912 176.193C105.382 174.971 105.805 173.279 106.181 171.117C106.557 168.861 106.745 165.9 106.745 162.234V121.485L92.786 162.234C91.47 165.9 90.624 168.861 90.248 171.117C89.872 173.279 89.731 174.971 89.825 176.193C89.919 177.603 90.201 178.543 90.671 179.013L89.966 179.859H82.634L81.929 179.013C82.399 178.543 82.681 177.603 82.775 176.193C82.869 174.971 82.728 173.279 82.352 171.117C81.976 168.861 81.13 165.9 79.814 162.234L65.855 121.485V162.234C65.855 165.9 65.996 168.861 66.278 171.117C66.654 173.279 67.077 174.971 67.547 176.193C68.017 177.603 68.628 178.543 69.38 179.013L69.098 179.859H47.807L47.525 179.013C48.183 178.543 48.747 177.603 49.217 176.193C49.687 174.971 50.11 173.279 50.486 171.117C50.862 168.861 51.05 165.9 51.05 162.234V144.468C51.05 141.742 50.909 139.627 50.627 138.123C50.345 136.525 50.016 135.303 49.64 134.457C49.264 133.423 48.841 132.765 48.371 132.483C48.841 132.201 49.264 131.543 49.64 130.509C50.016 129.663 50.345 128.488 50.627 126.984C50.909 125.386 51.05 123.224 51.05 120.498V96.387C51.05 92.721 50.862 89.807 50.486 87.645C50.11 85.389 49.687 83.65 49.217 82.428C48.747 81.018 48.183 80.078 47.525 79.608L47.807 78.621H69.098L69.803 79.608C69.333 80.078 69.051 81.018 68.957 82.428C68.863 83.65 69.004 85.389 69.38 87.645C69.756 89.807 70.602 92.721 71.918 96.387L86.3 138.264L100.682 96.387C101.998 92.721 102.844 89.807 103.22 87.645C103.596 85.389 103.737 83.65 103.643 82.428C103.549 81.018 103.267 80.078 102.797 79.608L103.502 78.621H124.793L125.075 79.608Z" fill="#FFB200"/>
<path d="M146.484 111.87V130.623H163.263L161.43 143.736L160.584 144.018C160.208 143.36 159.456 142.796 158.328 142.326C157.294 141.856 155.837 141.48 153.957 141.198C152.171 140.916 149.68 140.728 146.484 140.634V167.988H149.022C152.594 167.988 218.367 167.847 220.341 167.565C222.409 167.189 223.96 166.766 224.994 166.296C226.216 165.826 227.062 165.262 227.532 164.604L228.519 164.886L230.352 177.999H129.423L129 177.012C129.658 176.542 130.222 175.649 130.692 174.333C131.162 173.205 131.538 171.607 131.82 169.539C132.196 167.471 132.384 164.651 132.384 161.079V151.35C132.384 148.812 132.243 146.791 131.961 145.287C131.679 143.783 131.397 142.655 131.115 141.903C130.739 140.963 130.316 140.305 129.846 139.929C130.316 139.647 130.739 139.036 131.115 138.096C131.397 137.344 131.679 136.216 131.961 134.712C132.243 133.114 132.384 131.046 132.384 128.508V118.779C132.384 115.301 132.196 112.528 131.82 110.46C131.538 108.298 131.162 106.653 130.692 105.525C130.222 104.209 129.658 103.316 129 102.846L129.423 102H167.352L165.519 114.972L164.532 115.395C164.062 114.737 163.216 114.173 161.994 113.703C160.96 113.233 159.409 112.81 157.341 112.434C155.367 112.058 152.594 111.87 149.022 111.87H146.484Z" fill="#FFB200"/>
<path d="M224.528 102.846C223.87 103.316 223.306 104.209 222.836 105.525C222.366 106.653 221.943 108.298 221.567 110.46C221.285 112.528 221.144 115.301 221.144 118.779V128.508C221.144 131.046 221.238 133.114 221.426 134.712C221.708 136.216 222.037 137.344 222.413 138.096C222.789 139.036 223.212 139.647 223.682 139.929C223.212 140.305 222.789 140.963 222.413 141.903C222.037 142.655 221.708 143.783 221.426 145.287C221.238 146.791 221.144 148.812 221.144 151.35V152.079C221.144 155.651 221.285 151.471 221.567 153.539C221.943 155.607 222.366 157.205 222.836 158.333C223.306 159.649 223.87 160.542 224.528 161.012L224.245 161.999H203.942L203.66 161.012C204.13 160.636 204.6 159.931 205.07 158.897C205.446 157.957 205.822 156.688 206.198 155.09C206.574 153.398 204.855 161.142 205.044 158.322L190.547 129.354V145.079C190.547 148.651 190.688 151.471 190.97 153.539C191.346 155.607 191.769 157.205 192.239 158.333C192.709 159.649 193.273 160.542 193.931 161.012L193.648 161.999H172.345L172.062 161.012C172.721 160.542 173.285 159.649 173.755 158.333C174.225 157.205 174.6 155.607 174.882 153.539C175.258 151.471 175.446 148.651 175.446 145.079V145.35C175.446 142.812 176.306 140.791 176.024 139.287C175.742 137.783 175.46 136.655 175.178 135.903C174.802 134.963 174.379 134.305 173.909 133.929C174.379 133.647 174.802 133.036 175.178 132.096C175.46 131.344 175.742 130.216 176.024 128.712C176.306 127.114 176.446 128.046 176.446 125.508V115.779C176.446 112.301 176.258 112.528 175.882 110.46C175.6 108.298 175.225 106.653 174.755 105.525C174.285 104.209 173.721 103.316 173.062 102.846L173.345 102H193.648L194.354 102.846C193.978 103.41 193.883 104.397 194.072 105.807C194.26 107.029 194.683 108.815 195.34 111.165C196.092 113.421 197.409 116.429 199.288 120.189L207.044 136.686V118.779C207.044 115.301 206.855 112.528 206.479 110.46C206.197 108.298 205.822 106.653 205.352 105.525C204.882 104.209 204.317 103.316 203.66 102.846L203.942 102H224.245L224.528 102.846Z" fill="#FFB200"/>
<path d="M279.664 102.846C278.912 103.316 278.301 104.209 277.831 105.525C277.361 106.653 276.938 108.298 276.562 110.46C276.28 112.528 276.139 115.301 276.139 118.779V130.764C276.233 132.832 276.421 134.477 276.703 135.699C276.985 136.827 277.267 137.72 277.549 138.378C277.925 139.13 278.301 139.647 278.677 139.929C278.301 140.211 277.925 140.728 277.549 141.48C277.267 142.138 276.985 143.078 276.703 144.3C276.421 145.522 276.233 147.12 276.139 149.094V162.348C276.139 164.792 275.669 167.048 274.729 169.116C273.883 171.184 272.661 173.017 271.063 174.615C269.559 176.119 267.726 177.341 265.564 178.281C263.496 179.127 261.287 179.55 258.937 179.55H252.31C249.866 179.55 247.61 179.127 245.542 178.281C243.474 177.341 241.641 176.119 240.043 174.615C238.445 173.017 237.176 171.184 236.236 169.116C235.39 167.048 234.967 164.792 234.967 162.348V149.094C234.873 147.12 234.685 145.522 234.403 144.3C234.121 143.078 233.839 142.138 233.557 141.48C233.181 140.728 232.805 140.211 232.429 139.929C232.805 139.647 233.181 139.13 233.557 138.378C233.839 137.72 234.121 136.827 234.403 135.699C234.685 134.477 234.873 132.832 234.967 130.764V118.779C234.967 115.301 234.779 112.528 234.403 110.46C234.121 108.298 233.745 106.653 233.275 105.525C232.805 104.209 232.241 103.316 231.583 102.846L231.865 102H252.169L252.451 102.846C251.793 103.316 251.229 104.209 250.759 105.525C250.289 106.653 249.866 108.298 249.49 110.46C249.208 112.528 249.067 115.301 249.067 118.779V128.508C249.067 131.046 249.161 133.114 249.349 134.712C249.631 136.216 249.96 137.344 250.336 138.096C250.712 139.036 251.135 139.647 251.605 139.929C251.135 140.305 250.712 140.963 250.336 141.903C249.96 142.655 249.631 143.783 249.349 145.287C249.161 146.791 249.067 148.812 249.067 151.35V164.181C249.067 165.685 249.584 167.001 250.618 168.129C251.652 169.163 252.968 169.68 254.566 169.68H256.681C258.185 169.68 259.454 169.163 260.488 168.129C261.616 167.001 262.18 165.685 262.18 164.181V151.35C262.18 148.812 262.039 146.791 261.757 145.287C261.475 143.783 261.146 142.655 260.77 141.903C260.394 140.963 259.971 140.305 259.501 139.929C259.971 139.647 260.394 139.036 260.77 138.096C261.146 137.344 261.475 136.216 261.757 134.712C262.039 133.114 262.18 131.046 262.18 128.508V118.779C262.18 115.301 261.992 112.528 261.616 110.46C261.24 108.298 260.817 106.653 260.347 105.525C259.877 104.209 259.313 103.316 258.655 102.846L259.078 102H279.241L279.664 102.846Z" fill="#FFB200"/>
<path d="M346.752 122.115C346.866 124.243 347.037 125.909 347.265 127.112C347.607 128.315 348.006 129.287 348.462 130.027C348.917 130.86 349.43 131.415 350 131.693C349.43 132.063 348.917 132.618 348.462 133.358C348.006 134.099 347.607 135.071 347.265 136.274C347.037 137.384 346.866 139.004 346.752 141.132V162.232C346.752 164.73 346.182 167.044 345.043 169.173C343.903 171.301 342.308 173.198 340.256 174.864C338.319 176.437 335.983 177.686 333.248 178.612C330.627 179.537 327.835 180 324.872 180H314.103C311.026 180 308.177 179.537 305.556 178.612C302.934 177.686 300.598 176.437 298.547 174.864C296.61 173.198 295.071 171.301 293.932 169.173C292.792 167.044 292.222 164.73 292.222 162.232V140.716C292.108 138.772 291.937 137.199 291.709 135.996C291.481 134.793 291.254 133.867 291.026 133.22C290.684 132.479 290.342 131.97 290 131.693C290.342 131.415 290.684 130.906 291.026 130.166C291.254 129.518 291.481 128.639 291.709 127.528C291.937 126.325 292.108 124.706 292.222 122.67V94.7682C292.222 92.3621 292.792 90.0948 293.932 87.9663C295.071 85.7453 296.61 83.8482 298.547 82.2749C300.598 80.6092 302.934 79.3136 305.556 78.3881C308.177 77.4627 311.026 77 314.103 77H324.872C327.835 77 330.627 77.4627 333.248 78.3881C335.983 79.3136 338.319 80.6092 340.256 82.2749C342.308 83.8482 343.903 85.7453 345.043 87.9663C346.182 90.0948 346.752 92.3621 346.752 94.7682V122.115ZM328.803 143.492C328.803 140.808 328.632 138.726 328.291 137.245C327.949 135.672 327.55 134.469 327.094 133.636C326.638 132.618 326.125 131.97 325.556 131.693C326.125 131.415 326.638 130.767 327.094 129.749C327.55 128.916 327.949 127.76 328.291 126.279C328.632 124.706 328.803 122.577 328.803 119.894V92.9636C328.803 91.3904 328.12 90.0485 326.752 88.938C325.385 87.8275 323.732 87.2722 321.795 87.2722H317.179C315.242 87.2722 313.59 87.8275 312.222 88.938C310.855 90.0485 310.171 91.3904 310.171 92.9636V119.894C310.171 122.577 310.285 124.706 310.513 126.279C310.855 127.76 311.254 128.916 311.709 129.749C312.165 130.767 312.735 131.415 313.419 131.693C312.735 131.97 312.165 132.618 311.709 133.636C311.254 134.469 310.855 135.672 310.513 137.245C310.285 138.726 310.171 140.808 310.171 143.492V164.175C310.171 165.748 310.855 167.09 312.222 168.201C313.59 169.311 315.242 169.867 317.179 169.867H321.795C323.732 169.867 325.385 169.311 326.752 168.201C328.12 167.09 328.803 165.748 328.803 164.175V143.492Z" fill="white"/>
<path d="M420.577 133.987C420.577 136.486 420.804 138.504 421.258 140.042C421.711 141.515 422.222 142.669 422.789 143.501C423.356 144.462 424.093 145.103 425 145.423L424.49 146H398.804L398.464 145.423C399.258 145.103 399.995 144.462 400.675 143.501C401.242 142.669 401.753 141.515 402.206 140.042C402.66 138.504 402.887 136.486 402.887 133.987V128.221L381.113 99.2953V133.987C381.113 136.486 381.284 138.504 381.624 140.042C382.077 141.515 382.588 142.669 383.155 143.501C383.722 144.462 384.459 145.103 385.366 145.423L385.026 146H359.34L359 145.423C359.794 145.103 360.474 144.462 361.041 143.501C361.608 142.669 362.119 141.515 362.572 140.042C363.026 138.504 363.253 136.486 363.253 133.987V121.879C363.253 120.021 363.082 118.579 362.742 117.554C362.402 116.465 362.005 115.632 361.552 115.056C361.098 114.351 360.588 113.903 360.021 113.71C360.588 113.518 361.098 113.07 361.552 112.365C362.005 111.788 362.402 110.987 362.742 109.962C363.082 108.873 363.253 107.4 363.253 105.542V89.1086C363.253 86.61 363.026 84.624 362.572 83.1504C362.119 81.6128 361.608 80.4276 361.041 79.5947C360.474 78.6337 359.794 77.993 359 77.6727L359.34 77H385.026L385.876 77.6727C385.309 78.5056 385.082 79.5306 385.196 80.7479C385.309 81.837 385.706 83.2465 386.387 84.9763C387.067 86.6421 388.371 88.7242 390.299 91.2228L402.887 107.464V89.1086C402.887 86.61 402.66 84.624 402.206 83.1504C401.753 81.6128 401.242 80.4276 400.675 79.5947C399.995 78.6337 399.258 77.993 398.464 77.6727L398.804 77H424.49L425 77.6727C424.093 77.993 423.356 78.6337 422.789 79.5947C422.222 80.4276 421.711 81.6128 421.258 83.1504C420.804 84.624 420.577 86.61 420.577 89.1086V105.542C420.577 107.4 420.691 108.873 420.918 109.962C421.258 110.987 421.655 111.788 422.108 112.365C422.562 113.07 423.129 113.518 423.809 113.71C423.129 113.903 422.562 114.351 422.108 115.056C421.655 115.632 421.258 116.465 420.918 117.554C420.691 118.579 420.577 120.021 420.577 121.879V133.987Z" fill="white"/>
<path d="M359.735 160C360.143 160.662 360.918 161.23 362.061 161.703C363.041 162.176 364.469 162.601 366.347 162.98C368.143 163.264 370.551 163.405 373.571 163.405L382.02 163.405C384.224 163.405 386.02 163.311 387.408 163.122C388.714 162.838 389.694 162.507 390.347 162.128C391.163 161.75 391.694 161.324 391.939 160.851C392.265 161.324 392.837 161.75 393.653 162.128C394.306 162.507 395.286 162.838 396.592 163.122C397.898 163.311 399.653 163.405 401.857 163.405L410.306 163.405C413.408 163.405 415.857 163.264 417.653 162.98C419.449 162.601 420.837 162.176 421.816 161.703C422.959 161.23 423.735 160.662 424.143 160L425 160.284L425 180.716L424.143 181C423.735 180.338 422.959 179.77 421.816 179.297C420.837 178.824 419.449 178.446 417.653 178.162C415.857 177.784 413.408 177.595 410.306 177.595L401.857 177.595C399.653 177.595 397.898 177.736 396.592 178.02C395.286 178.304 394.306 178.588 393.653 178.872C392.837 179.25 392.265 179.676 391.939 180.149C391.694 179.676 391.163 179.25 390.347 178.872C389.694 178.588 388.714 178.304 387.408 178.02C386.02 177.736 384.224 177.595 382.02 177.595L373.571 177.595C370.551 177.595 368.143 177.784 366.347 178.162C364.469 178.446 363.041 178.824 362.061 179.297C360.918 179.77 360.143 180.338 359.735 181L359 180.716L359 160.284L359.735 160Z" fill="white"/>
</g>
<defs>
<clipPath id="clip0_12_20">
<rect width="613" height="259" fill="white"/>
</clipPath>
<clipPath id="clip1_12_20">
<rect width="66" height="69" fill="white" transform="translate(363 83)"/>
</clipPath>
</defs>
</svg>
